<svg width="820" height="480" xmlns="http://www.w3.org/2000/svg" xmlns:xlink="http://www.w3.org/1999/xlink" version="1.1" baseProfile="full" viewBox="0 0 820 480">
<rect width="820" height="480" x="0" y="0" fill="#FFFFFF"></rect>
<path d="M190.5 88L190.5 442" fill="none" pointer-events="visible" stroke="#EEF1F4" class="zr0-cls-0"></path>
<path d="M300.5 88L300.5 442" fill="none" pointer-events="visible" stroke="#EEF1F4" class="zr0-cls-0"></path>
<path d="M410.5 88L410.5 442" fill="none" pointer-events="visible" stroke="#EEF1F4" class="zr0-cls-0"></path>
<path d="M520.5 88L520.5 442" fill="none" pointer-events="visible" stroke="#EEF1F4" class="zr0-cls-0"></path>
<path d="M630.5 88L630.5 442" fill="none" pointer-events="visible" stroke="#EEF1F4" class="zr0-cls-0"></path>
<path d="M740.5 88L740.5 442" fill="none" pointer-events="visible" stroke="#EEF1F4" class="zr0-cls-0"></path>
<text dominant-baseline="central" text-anchor="end" style="font-size:12px;font-family:Microsoft YaHei;" xml:space="preserve" transform="translate(182 397.75)" fill="#222222">Keep clothes</text>
<text dominant-baseline="central" text-anchor="end" style="font-size:12px;font-family:Microsoft YaHei;" xml:space="preserve" transform="translate(182 309.25)" fill="#222222">Sell online</text>
<text dominant-baseline="central" text-anchor="end" style="font-size:12px;font-family:Microsoft YaHei;" xml:space="preserve" transform="translate(182 220.75)" fill="#222222">Give to friends / family</text>
<text dominant-baseline="central" text-anchor="end" style="font-size:12px;font-family:Microsoft YaHei;" xml:space="preserve" transform="translate(182 132.25)" fill="#222222">Donate to op shops / charity</text>
<text dominant-baseline="central" text-anchor="middle" style="font-size:12px;font-family:Microsoft YaHei;" y="6" transform="translate(190 450)" fill="#667085">0%</text>
<text dominant-baseline="central" text-anchor="middle" style="font-size:12px;font-family:Microsoft YaHei;" y="6" transform="translate(300 450)" fill="#667085">20%</text>
<text dominant-baseline="central" text-anchor="middle" style="font-size:12px;font-family:Microsoft YaHei;" y="6" transform="translate(410 450)" fill="#667085">40%</text>
<text dominant-baseline="central" text-anchor="middle" style="font-size:12px;font-family:Microsoft YaHei;" y="6" transform="translate(520 450)" fill="#667085">60%</text>
<text dominant-baseline="central" text-anchor="middle" style="font-size:12px;font-family:Microsoft YaHei;" y="6" transform="translate(630 450)" fill="#667085">80%</text>
<text dominant-baseline="central" text-anchor="middle" style="font-size:12px;font-family:Microsoft YaHei;" y="6" transform="translate(740 450)" fill="#667085">100%</text>
<path d="M190 386.8L275.9 386.8A6 6 0 0 1 281.9 392.8L281.9 402.8A6 6 0 0 1 275.9 408.8L190 408.8L190 386.8" fill="#1F5F74" ecmeta_series_index="0" ecmeta_data_index="0" ecmeta_ssr_type="chart" class="zr0-cls-1"></path>
<path d="M190 298.3L367.2 298.3A6 6 0 0 1 373.2 304.3L373.2 314.3A6 6 0 0 1 367.2 320.3L190 320.3L190 298.3" fill="#1F5F74" ecmeta_series_index="0" ecmeta_data_index="1" ecmeta_ssr_type="chart" class="zr0-cls-1"></path>
<path d="M190 209.8L398 209.8A6 6 0 0 1 404 215.8L404 225.8A6 6 0 0 1 398 231.8L190 231.8L190 209.8" fill="#1F5F74" ecmeta_series_index="0" ecmeta_data_index="2" ecmeta_ssr_type="chart" class="zr0-cls-1"></path>
<path d="M190 121.3L673 121.3A6 6 0 0 1 679 127.3L679 137.3A6 6 0 0 1 673 143.3L190 143.3L190 121.3" fill="#1F5F74" ecmeta_series_index="0" ecmeta_data_index="3" ecmeta_ssr_type="chart" class="zr0-cls-1"></path>
<text dominant-baseline="central" text-anchor="start" style="font-size:12px;font-family:Microsoft YaHei;" transform="translate(286.85 397.75)" fill="#222222">16.7%</text>
<text dominant-baseline="central" text-anchor="start" style="font-size:12px;font-family:Microsoft YaHei;" transform="translate(378.15 309.25)" fill="#222222">33.3%</text>
<text dominant-baseline="central" text-anchor="start" style="font-size:12px;font-family:Microsoft YaHei;" transform="translate(408.95 220.75)" fill="#222222">38.9%</text>
<text dominant-baseline="central" text-anchor="start" style="font-size:12px;font-family:Microsoft YaHei;" transform="translate(683.95 132.25)" fill="#222222">88.9%</text>
<path d="M-5 -5l302.1 0l0 52l-302.1 0Z" transform="translate(21 17)" fill="rgb(0,0,0)" fill-opacity="0" stroke="#ccc" stroke-width="0" class="zr0-cls-0"></path>
<text dominant-baseline="central" text-anchor="start" style="font-size:20px;font-family:Microsoft YaHei;font-weight:700;" xml:space="preserve" y="10" transform="translate(21 17)" fill="#15212B">Current Behaviour</text>
<text dominant-baseline="central" text-anchor="start" style="font-size:12px;font-family:Microsoft YaHei;" xml:space="preserve" y="36" transform="translate(21 17)" fill="#667085">Donation dominates because resale feels inconvenient</text>
<style ><![CDATA[
.zr0-cls-0:hover {
pointer-events:none;
}
.zr0-cls-1:hover {
cursor:pointer;
fill:rgba(34,104,127,1);
}

]]>

</style>
</svg>