<svg width="820" height="480" xmlns="http://www.w3.org/2000/svg" xmlns:xlink="http://www.w3.org/1999/xlink" version="1.1" baseProfile="full" viewBox="0 0 820 480">
<rect width="820" height="480" x="0" y="0" fill="#FFFFFF"></rect>
<path d="M190.5 88L190.5 442" fill="none" pointer-events="visible" stroke="#EEF1F4" class="zr1-cls-2"></path>
<path d="M300.5 88L300.5 442" fill="none" pointer-events="visible" stroke="#EEF1F4" class="zr1-cls-2"></path>
<path d="M410.5 88L410.5 442" fill="none" pointer-events="visible" stroke="#EEF1F4" class="zr1-cls-2"></path>
<path d="M520.5 88L520.5 442" fill="none" pointer-events="visible" stroke="#EEF1F4" class="zr1-cls-2"></path>
<path d="M630.5 88L630.5 442" fill="none" pointer-events="visible" stroke="#EEF1F4" class="zr1-cls-2"></path>
<path d="M740.5 88L740.5 442" fill="none" pointer-events="visible" stroke="#EEF1F4" class="zr1-cls-2"></path>
<text dominant-baseline="central" text-anchor="end" style="font-size:12px;font-family:Microsoft YaHei;" xml:space="preserve" transform="translate(182 419.875)" fill="#222222">Photo effort</text>
<text dominant-baseline="central" text-anchor="end" style="font-size:12px;font-family:Microsoft YaHei;" xml:space="preserve" transform="translate(182 375.625)" fill="#222222">Pricing uncertainty</text>
<text dominant-baseline="central" text-anchor="end" style="font-size:12px;font-family:Microsoft YaHei;" xml:space="preserve" transform="translate(182 331.375)" fill="#222222">Prefer donation</text>
<text dominant-baseline="central" text-anchor="end" style="font-size:12px;font-family:Microsoft YaHei;" xml:space="preserve" transform="translate(182 287.125)" fill="#222222">Money not worth effort</text>
<text dominant-baseline="central" text-anchor="end" style="font-size:12px;font-family:Microsoft YaHei;" xml:space="preserve" transform="translate(182 242.875)" fill="#222222">Uploading listings takes too much effort</text>
<text dominant-baseline="central" text-anchor="end" style="font-size:12px;font-family:Microsoft YaHei;" xml:space="preserve" transform="translate(182 198.625)" fill="#222222">Low return on effort</text>
<text dominant-baseline="central" text-anchor="end" style="font-size:12px;font-family:Microsoft YaHei;" xml:space="preserve" transform="translate(182 154.375)" fill="#222222">Shipping / delivery</text>
<text dominant-baseline="central" text-anchor="end" style="font-size:12px;font-family:Microsoft YaHei;" xml:space="preserve" transform="translate(182 110.125)" fill="#222222">Time required</text>
<text dominant-baseline="central" text-anchor="middle" style="font-size:12px;font-family:Microsoft YaHei;" y="6" transform="translate(190 450)" fill="#667085">0%</text>
<text dominant-baseline="central" text-anchor="middle" style="font-size:12px;font-family:Microsoft YaHei;" y="6" transform="translate(300 450)" fill="#667085">20%</text>
<text dominant-baseline="central" text-anchor="middle" style="font-size:12px;font-family:Microsoft YaHei;" y="6" transform="translate(410 450)" fill="#667085">40%</text>
<text dominant-baseline="central" text-anchor="middle" style="font-size:12px;font-family:Microsoft YaHei;" y="6" transform="translate(520 450)" fill="#667085">60%</text>
<text dominant-baseline="central" text-anchor="middle" style="font-size:12px;font-family:Microsoft YaHei;" y="6" transform="translate(630 450)" fill="#667085">80%</text>
<text dominant-baseline="central" text-anchor="middle" style="font-size:12px;font-family:Microsoft YaHei;" y="6" transform="translate(740 450)" fill="#667085">100%</text>
<path d="M190 417.9l122.1 0l0 4l-122.1 0Z" fill="#E7EAF0" ecmeta_series_index="0" ecmeta_data_index="0" ecmeta_ssr_type="chart" ecmeta_silent="true" class="zr1-cls-3 zr1-cls-2"></path>
<path d="M190 373.6l122.1 0l0 4l-122.1 0Z" fill="#E7EAF0" ecmeta_series_index="0" ecmeta_data_index="1" ecmeta_ssr_type="chart" ecmeta_silent="true" class="zr1-cls-4 zr1-cls-2"></path>
<path d="M190 329.4l152.9 0l0 4l-152.9 0Z" fill="#E7EAF0" ecmeta_series_index="0" ecmeta_data_index="2" ecmeta_ssr_type="chart" ecmeta_silent="true" class="zr1-cls-5 zr1-cls-2"></path>
<path d="M190 285.1l183.1 0l0 4l-183.1 0Z" fill="#E7EAF0" ecmeta_series_index="0" ecmeta_data_index="3" ecmeta_ssr_type="chart" ecmeta_silent="true" class="zr1-cls-6 zr1-cls-2"></path>
<path d="M190 240.9l183.1 0l0 4l-183.1 0Z" fill="#E7EAF0" ecmeta_series_index="0" ecmeta_data_index="4" ecmeta_ssr_type="chart" ecmeta_silent="true" class="zr1-cls-7 zr1-cls-2"></path>
<path d="M190 196.6l214 0l0 4l-214 0Z" fill="#E7EAF0" ecmeta_series_index="0" ecmeta_data_index="5" ecmeta_ssr_type="chart" ecmeta_silent="true" class="zr1-cls-8 zr1-cls-2"></path>
<path d="M190 152.4l214 0l0 4l-214 0Z" fill="#E7EAF0" ecmeta_series_index="0" ecmeta_data_index="6" ecmeta_ssr_type="chart" ecmeta_silent="true" class="zr1-cls-9 zr1-cls-2"></path>
<path d="M190 108.1l275 0l0 4l-275 0Z" fill="#E7EAF0" ecmeta_series_index="0" ecmeta_data_index="7" ecmeta_ssr_type="chart" ecmeta_silent="true" class="zr1-cls-10 zr1-cls-2"></path>
<path d="M1 0A1 1 0 1 1 1 -0.1A1 1 0 0 1 1 0" transform="matrix(9,0,0,9,312.1,419.875)" fill="#B95F6A" fill-opacity="0.8" ecmeta_series_index="1" ecmeta_data_index="0" ecmeta_ssr_type="chart" class="zr1-cls-11 zr1-cls-12"></path>
<path d="M1 0A1 1 0 1 1 1 -0.1A1 1 0 0 1 1 0" transform="matrix(9,0,0,9,312.1,375.625)" fill="#B95F6A" fill-opacity="0.8" ecmeta_series_index="1" ecmeta_data_index="1" ecmeta_ssr_type="chart" class="zr1-cls-13 zr1-cls-12"></path>
<path d="M1 0A1 1 0 1 1 1 -0.1A1 1 0 0 1 1 0" transform="matrix(9,0,0,9,342.9,331.375)" fill="#B95F6A" fill-opacity="0.8" ecmeta_series_index="1" ecmeta_data_index="2" ecmeta_ssr_type="chart" class="zr1-cls-14 zr1-cls-12"></path>
<path d="M1 0A1 1 0 1 1 1 -0.1A1 1 0 0 1 1 0" transform="matrix(9,0,0,9,373.15,287.125)" fill="#B95F6A" fill-opacity="0.8" ecmeta_series_index="1" ecmeta_data_index="3" ecmeta_ssr_type="chart" class="zr1-cls-15 zr1-cls-12"></path>
<path d="M1 0A1 1 0 1 1 1 -0.1A1 1 0 0 1 1 0" transform="matrix(9,0,0,9,373.15,242.875)" fill="#B95F6A" fill-opacity="0.8" ecmeta_series_index="1" ecmeta_data_index="4" ecmeta_ssr_type="chart" class="zr1-cls-16 zr1-cls-12"></path>
<path d="M1 0A1 1 0 1 1 1 -0.1A1 1 0 0 1 1 0" transform="matrix(9,0,0,9,403.95,198.625)" fill="#B95F6A" fill-opacity="0.8" ecmeta_series_index="1" ecmeta_data_index="5" ecmeta_ssr_type="chart" class="zr1-cls-17 zr1-cls-12"></path>
<path d="M1 0A1 1 0 1 1 1 -0.1A1 1 0 0 1 1 0" transform="matrix(9,0,0,9,403.95,154.375)" fill="#B95F6A" fill-opacity="0.8" ecmeta_series_index="1" ecmeta_data_index="6" ecmeta_ssr_type="chart" class="zr1-cls-18 zr1-cls-12"></path>
<path d="M1 0A1 1 0 1 1 1 -0.1A1 1 0 0 1 1 0" transform="matrix(9,0,0,9,465,110.125)" fill="#B95F6A" fill-opacity="0.8" ecmeta_series_index="1" ecmeta_data_index="7" ecmeta_ssr_type="chart" class="zr1-cls-19 zr1-cls-12"></path>
<text dominant-baseline="central" text-anchor="start" style="font-size:12px;font-family:Microsoft YaHei;" transform="translate(326.1 419.875)" fill="#333" fill-opacity="0.8" stroke="rgb(255,255,255)" stroke-width="2" paint-order="stroke" stroke-opacity="0.8" stroke-miterlimit="2">22.2%</text>
<text dominant-baseline="central" text-anchor="start" style="font-size:12px;font-family:Microsoft YaHei;" transform="translate(326.1 375.625)" fill="#333" fill-opacity="0.8" stroke="rgb(255,255,255)" stroke-width="2" paint-order="stroke" stroke-opacity="0.8" stroke-miterlimit="2">22.2%</text>
<text dominant-baseline="central" text-anchor="start" style="font-size:12px;font-family:Microsoft YaHei;" transform="translate(356.9 331.375)" fill="#333" fill-opacity="0.8" stroke="rgb(255,255,255)" stroke-width="2" paint-order="stroke" stroke-opacity="0.8" stroke-miterlimit="2">27.8%</text>
<text dominant-baseline="central" text-anchor="start" style="font-size:12px;font-family:Microsoft YaHei;" transform="translate(387.15 287.125)" fill="#333" fill-opacity="0.8" stroke="rgb(255,255,255)" stroke-width="2" paint-order="stroke" stroke-opacity="0.8" stroke-miterlimit="2">33.3%</text>
<text dominant-baseline="central" text-anchor="start" style="font-size:12px;font-family:Microsoft YaHei;" transform="translate(387.15 242.875)" fill="#333" fill-opacity="0.8" stroke="rgb(255,255,255)" stroke-width="2" paint-order="stroke" stroke-opacity="0.8" stroke-miterlimit="2">33.3%</text>
<text dominant-baseline="central" text-anchor="start" style="font-size:12px;font-family:Microsoft YaHei;" transform="translate(417.95 198.625)" fill="#333" fill-opacity="0.8" stroke="rgb(255,255,255)" stroke-width="2" paint-order="stroke" stroke-opacity="0.8" stroke-miterlimit="2">38.9%</text>
<text dominant-baseline="central" text-anchor="start" style="font-size:12px;font-family:Microsoft YaHei;" transform="translate(417.95 154.375)" fill="#333" fill-opacity="0.8" stroke="rgb(255,255,255)" stroke-width="2" paint-order="stroke" stroke-opacity="0.8" stroke-miterlimit="2">38.9%</text>
<text dominant-baseline="central" text-anchor="start" style="font-size:12px;font-family:Microsoft YaHei;" transform="translate(479 110.125)" fill="#333" fill-opacity="0.8" stroke="rgb(255,255,255)" stroke-width="2" paint-order="stroke" stroke-opacity="0.8" stroke-miterlimit="2">50%</text>
<path d="M-5 -5l356.8 0l0 52l-356.8 0Z" transform="translate(21 17)" fill="rgb(0,0,0)" fill-opacity="0" stroke="#ccc" stroke-width="0" class="zr1-cls-2"></path>
<text dominant-baseline="central" text-anchor="start" style="font-size:20px;font-family:Microsoft YaHei;font-weight:700;" xml:space="preserve" y="10" transform="translate(21 17)" fill="#15212B">Main Resale Pain Points</text>
<text dominant-baseline="central" text-anchor="start" style="font-size:12px;font-family:Microsoft YaHei;" xml:space="preserve" y="36" transform="translate(21 17)" fill="#667085">Time, shipping, and low return on effort are the strongest barriers</text>
<style ><![CDATA[
.zr1-cls-2:hover {
pointer-events:none;
}
.zr1-cls-3 {
animation:zr1-ani-0 1s cubic-bezier(0.65,0,0.35,1) both;
}
.zr1-cls-4 {
animation:zr1-ani-1 1s cubic-bezier(0.65,0,0.35,1) both;
}
.zr1-cls-5 {
animation:zr1-ani-2 1s cubic-bezier(0.65,0,0.35,1) both;
}
.zr1-cls-6 {
animation:zr1-ani-3 1s cubic-bezier(0.65,0,0.35,1) both;
}
.zr1-cls-7 {
animation:zr1-ani-4 1s cubic-bezier(0.65,0,0.35,1) both;
}
.zr1-cls-8 {
animation:zr1-ani-5 1s cubic-bezier(0.65,0,0.35,1) both;
}
.zr1-cls-9 {
animation:zr1-ani-6 1s cubic-bezier(0.65,0,0.35,1) both;
}
.zr1-cls-10 {
animation:zr1-ani-7 1s cubic-bezier(0.65,0,0.35,1) both;
}
.zr1-cls-11 {
animation:zr1-ani-8 1s cubic-bezier(0.65,0,0.35,1) both;
}
.zr1-cls-12:hover {
cursor:pointer;
fill:rgba(203,104,116,1);
}
.zr1-cls-13 {
animation:zr1-ani-9 1s cubic-bezier(0.65,0,0.35,1) both;
}
.zr1-cls-14 {
animation:zr1-ani-10 1s cubic-bezier(0.65,0,0.35,1) both;
}
.zr1-cls-15 {
animation:zr1-ani-11 1s cubic-bezier(0.65,0,0.35,1) both;
}
.zr1-cls-16 {
animation:zr1-ani-12 1s cubic-bezier(0.65,0,0.35,1) both;
}
.zr1-cls-17 {
animation:zr1-ani-13 1s cubic-bezier(0.65,0,0.35,1) both;
}
.zr1-cls-18 {
animation:zr1-ani-14 1s cubic-bezier(0.65,0,0.35,1) both;
}
.zr1-cls-19 {
animation:zr1-ani-15 1s cubic-bezier(0.65,0,0.35,1) both;
}
@keyframes zr1-ani-0 {
0% {
d:path("M190 417.9l0 0l0 4l0 0Z");
}
100% {
d:path("M190 417.9l122.1 0l0 4l-122.1 0Z");
}
}
@keyframes zr1-ani-1 {
0% {
d:path("M190 373.6l0 0l0 4l0 0Z");
}
100% {
d:path("M190 373.6l122.1 0l0 4l-122.1 0Z");
}
}
@keyframes zr1-ani-2 {
0% {
d:path("M190 329.4l0 0l0 4l0 0Z");
}
100% {
d:path("M190 329.4l152.9 0l0 4l-152.9 0Z");
}
}
@keyframes zr1-ani-3 {
0% {
d:path("M190 285.1l0 0l0 4l0 0Z");
}
100% {
d:path("M190 285.1l183.1 0l0 4l-183.1 0Z");
}
}
@keyframes zr1-ani-4 {
0% {
d:path("M190 240.9l0 0l0 4l0 0Z");
}
100% {
d:path("M190 240.9l183.1 0l0 4l-183.1 0Z");
}
}
@keyframes zr1-ani-5 {
0% {
d:path("M190 196.6l0 0l0 4l0 0Z");
}
100% {
d:path("M190 196.6l214 0l0 4l-214 0Z");
}
}
@keyframes zr1-ani-6 {
0% {
d:path("M190 152.4l0 0l0 4l0 0Z");
}
100% {
d:path("M190 152.4l214 0l0 4l-214 0Z");
}
}
@keyframes zr1-ani-7 {
0% {
d:path("M190 108.1l0 0l0 4l0 0Z");
}
100% {
d:path("M190 108.1l275 0l0 4l-275 0Z");
}
}
@keyframes zr1-ani-8 {
0% {
transform:scale(0,0);
opacity:0;
}
100% {
transform:scale(9,9);
opacity:0.8;
}
}
@keyframes zr1-ani-9 {
0% {
transform:scale(0,0);
opacity:0;
}
100% {
transform:scale(9,9);
opacity:0.8;
}
}
@keyframes zr1-ani-10 {
0% {
transform:scale(0,0);
opacity:0;
}
100% {
transform:scale(9,9);
opacity:0.8;
}
}
@keyframes zr1-ani-11 {
0% {
transform:scale(0,0);
opacity:0;
}
100% {
transform:scale(9,9);
opacity:0.8;
}
}
@keyframes zr1-ani-12 {
0% {
transform:scale(0,0);
opacity:0;
}
100% {
transform:scale(9,9);
opacity:0.8;
}
}
@keyframes zr1-ani-13 {
0% {
transform:scale(0,0);
opacity:0;
}
100% {
transform:scale(9,9);
opacity:0.8;
}
}
@keyframes zr1-ani-14 {
0% {
transform:scale(0,0);
opacity:0;
}
100% {
transform:scale(9,9);
opacity:0.8;
}
}
@keyframes zr1-ani-15 {
0% {
transform:scale(0,0);
opacity:0;
}
100% {
transform:scale(9,9);
opacity:0.8;
}
}
]]>

</style>
</svg>