<svg width="820" height="480" xmlns="http://www.w3.org/2000/svg" xmlns:xlink="http://www.w3.org/1999/xlink" version="1.1" baseProfile="full" viewBox="0 0 820 480">
<rect width="820" height="480" x="0" y="0" fill="#FFFFFF"></rect>
<path d="M190.5 88L190.5 442" fill="none" pointer-events="visible" stroke="#EEF1F4" class="zr2-cls-20"></path>
<path d="M300.5 88L300.5 442" fill="none" pointer-events="visible" stroke="#EEF1F4" class="zr2-cls-20"></path>
<path d="M410.5 88L410.5 442" fill="none" pointer-events="visible" stroke="#EEF1F4" class="zr2-cls-20"></path>
<path d="M520.5 88L520.5 442" fill="none" pointer-events="visible" stroke="#EEF1F4" class="zr2-cls-20"></path>
<path d="M630.5 88L630.5 442" fill="none" pointer-events="visible" stroke="#EEF1F4" class="zr2-cls-20"></path>
<path d="M740.5 88L740.5 442" fill="none" pointer-events="visible" stroke="#EEF1F4" class="zr2-cls-20"></path>
<text dominant-baseline="central" text-anchor="end" style="font-size:12px;font-family:Microsoft YaHei;" xml:space="preserve" transform="translate(182 412.5)" fill="#222222">Not sure</text>
<text dominant-baseline="central" text-anchor="end" style="font-size:12px;font-family:Microsoft YaHei;" xml:space="preserve" transform="translate(182 353.5)" fill="#222222">Would not pay</text>
<text dominant-baseline="central" text-anchor="end" style="font-size:12px;font-family:Microsoft YaHei;" xml:space="preserve" transform="translate(182 294.5)" fill="#222222">Per-item membership</text>
<text dominant-baseline="central" text-anchor="end" style="font-size:12px;font-family:Microsoft YaHei;" xml:space="preserve" transform="translate(182 235.5)" fill="#222222">Package: fee + commission</text>
<text dominant-baseline="central" text-anchor="end" style="font-size:12px;font-family:Microsoft YaHei;" xml:space="preserve" transform="translate(182 176.5)" fill="#222222">Upfront service fee</text>
<text dominant-baseline="central" text-anchor="end" style="font-size:12px;font-family:Microsoft YaHei;" xml:space="preserve" transform="translate(182 117.5)" fill="#222222">Commission only</text>
<text dominant-baseline="central" text-anchor="middle" style="font-size:12px;font-family:Microsoft YaHei;" y="6" transform="translate(190 450)" fill="#667085">0%</text>
<text dominant-baseline="central" text-anchor="middle" style="font-size:12px;font-family:Microsoft YaHei;" y="6" transform="translate(300 450)" fill="#667085">20%</text>
<text dominant-baseline="central" text-anchor="middle" style="font-size:12px;font-family:Microsoft YaHei;" y="6" transform="translate(410 450)" fill="#667085">40%</text>
<text dominant-baseline="central" text-anchor="middle" style="font-size:12px;font-family:Microsoft YaHei;" y="6" transform="translate(520 450)" fill="#667085">60%</text>
<text dominant-baseline="central" text-anchor="middle" style="font-size:12px;font-family:Microsoft YaHei;" y="6" transform="translate(630 450)" fill="#667085">80%</text>
<text dominant-baseline="central" text-anchor="middle" style="font-size:12px;font-family:Microsoft YaHei;" y="6" transform="translate(740 450)" fill="#667085">100%</text>
<path d="M190 401.5L218.7 401.5A6 6 0 0 1 224.7 407.5L224.7 417.5A6 6 0 0 1 218.7 423.5L190 423.5L190 401.5" fill="#A66E19" ecmeta_series_index="0" ecmeta_data_index="0" ecmeta_ssr_type="chart" class="zr2-cls-21"></path>
<path d="M190 342.5L218.7 342.5A6 6 0 0 1 224.7 348.5L224.7 358.5A6 6 0 0 1 218.7 364.5L190 364.5L190 342.5" fill="#A66E19" ecmeta_series_index="0" ecmeta_data_index="1" ecmeta_ssr_type="chart" class="zr2-cls-21"></path>
<path d="M190 283.5L218.7 283.5A6 6 0 0 1 224.7 289.5L224.7 299.5A6 6 0 0 1 218.7 305.5L190 305.5L190 283.5" fill="#A66E19" ecmeta_series_index="0" ecmeta_data_index="2" ecmeta_ssr_type="chart" class="zr2-cls-21"></path>
<path d="M190 224.5L287.4 224.5A6 6 0 0 1 293.4 230.5L293.4 240.5A6 6 0 0 1 287.4 246.5L190 246.5L190 224.5" fill="#A66E19" ecmeta_series_index="0" ecmeta_data_index="3" ecmeta_ssr_type="chart" class="zr2-cls-21"></path>
<path d="M190 165.5L390.3 165.5A6 6 0 0 1 396.3 171.5L396.3 181.5A6 6 0 0 1 390.3 187.5L190 187.5L190 165.5" fill="#A66E19" ecmeta_series_index="0" ecmeta_data_index="4" ecmeta_ssr_type="chart" class="zr2-cls-21"></path>
<path d="M190 106.5L562.4 106.5A6 6 0 0 1 568.4 112.5L568.4 122.5A6 6 0 0 1 562.4 128.5L190 128.5L190 106.5" fill="#A66E19" ecmeta_series_index="0" ecmeta_data_index="5" ecmeta_ssr_type="chart" class="zr2-cls-21"></path>
<text dominant-baseline="central" text-anchor="start" style="font-size:12px;font-family:Microsoft YaHei;" transform="translate(229.65 412.5)" fill="#222222">6.3%</text>
<text dominant-baseline="central" text-anchor="start" style="font-size:12px;font-family:Microsoft YaHei;" transform="translate(229.65 353.5)" fill="#222222">6.3%</text>
<text dominant-baseline="central" text-anchor="start" style="font-size:12px;font-family:Microsoft YaHei;" transform="translate(229.65 294.5)" fill="#222222">6.3%</text>
<text dominant-baseline="central" text-anchor="start" style="font-size:12px;font-family:Microsoft YaHei;" transform="translate(298.4 235.5)" fill="#222222">18.8%</text>
<text dominant-baseline="central" text-anchor="start" style="font-size:12px;font-family:Microsoft YaHei;" transform="translate(401.25 176.5)" fill="#222222">37.5%</text>
<text dominant-baseline="central" text-anchor="start" style="font-size:12px;font-family:Microsoft YaHei;" transform="translate(573.4 117.5)" fill="#222222">68.8%</text>
<path d="M-5 -5l321.3 0l0 52l-321.3 0Z" transform="translate(21 17)" fill="rgb(0,0,0)" fill-opacity="0" stroke="#ccc" stroke-width="0" class="zr2-cls-20"></path>
<text dominant-baseline="central" text-anchor="start" style="font-size:20px;font-family:Microsoft YaHei;font-weight:700;" xml:space="preserve" y="10" transform="translate(21 17)" fill="#15212B">Payment Model Preference</text>
<text dominant-baseline="central" text-anchor="start" style="font-size:12px;font-family:Microsoft YaHei;" xml:space="preserve" y="36" transform="translate(21 17)" fill="#667085">Commission-only is the lowest-risk early conversion model</text>
<style ><![CDATA[
.zr2-cls-20:hover {
pointer-events:none;
}
.zr2-cls-21:hover {
cursor:pointer;
fill:rgba(182,121,27,1);
}

]]>

</style>
</svg>