<svg width="820" height="480" xmlns="http://www.w3.org/2000/svg" xmlns:xlink="http://www.w3.org/1999/xlink" version="1.1" baseProfile="full" viewBox="0 0 820 480">
<rect width="820" height="480" x="0" y="0" fill="#FFFFFF"></rect>
<path d="M165.5 88L165.5 442" fill="none" pointer-events="visible" stroke="#EEF1F4" class="zr4-cls-26"></path>
<path d="M284.5 88L284.5 442" fill="none" pointer-events="visible" stroke="#EEF1F4" class="zr4-cls-26"></path>
<path d="M403.5 88L403.5 442" fill="none" pointer-events="visible" stroke="#EEF1F4" class="zr4-cls-26"></path>
<path d="M522.5 88L522.5 442" fill="none" pointer-events="visible" stroke="#EEF1F4" class="zr4-cls-26"></path>
<path d="M641.5 88L641.5 442" fill="none" pointer-events="visible" stroke="#EEF1F4" class="zr4-cls-26"></path>
<path d="M760.5 88L760.5 442" fill="none" pointer-events="visible" stroke="#EEF1F4" class="zr4-cls-26"></path>
<text dominant-baseline="central" text-anchor="end" style="font-size:12px;font-family:Microsoft YaHei;" xml:space="preserve" transform="translate(157 416.7143)" fill="#222222">Return/refund options</text>
<text dominant-baseline="central" text-anchor="end" style="font-size:12px;font-family:Microsoft YaHei;" transform="translate(157 366.1429)" fill="#222222">Brand</text>
<text dominant-baseline="central" text-anchor="end" style="font-size:12px;font-family:Microsoft YaHei;" xml:space="preserve" transform="translate(157 315.5714)" fill="#222222">Clear photos</text>
<text dominant-baseline="central" text-anchor="end" style="font-size:12px;font-family:Microsoft YaHei;" transform="translate(157 265)" fill="#222222">Price</text>
<text dominant-baseline="central" text-anchor="end" style="font-size:12px;font-family:Microsoft YaHei;" xml:space="preserve" transform="translate(157 214.4286)" fill="#222222">Accurate sizing</text>
<text dominant-baseline="central" text-anchor="end" style="font-size:12px;font-family:Microsoft YaHei;" xml:space="preserve" transform="translate(157 163.8571)" fill="#222222">Trust in seller / platform</text>
<text dominant-baseline="central" text-anchor="end" style="font-size:12px;font-family:Microsoft YaHei;" transform="translate(157 113.2857)" fill="#222222">Condition</text>
<text dominant-baseline="central" text-anchor="middle" style="font-size:12px;font-family:Microsoft YaHei;" y="6" transform="translate(165 450)" fill="#667085">0%</text>
<text dominant-baseline="central" text-anchor="middle" style="font-size:12px;font-family:Microsoft YaHei;" y="6" transform="translate(284 450)" fill="#667085">20%</text>
<text dominant-baseline="central" text-anchor="middle" style="font-size:12px;font-family:Microsoft YaHei;" y="6" transform="translate(403 450)" fill="#667085">40%</text>
<text dominant-baseline="central" text-anchor="middle" style="font-size:12px;font-family:Microsoft YaHei;" y="6" transform="translate(522 450)" fill="#667085">60%</text>
<text dominant-baseline="central" text-anchor="middle" style="font-size:12px;font-family:Microsoft YaHei;" y="6" transform="translate(641 450)" fill="#667085">80%</text>
<text dominant-baseline="central" text-anchor="middle" style="font-size:12px;font-family:Microsoft YaHei;" y="6" transform="translate(760 450)" fill="#667085">100%</text>
<path d="M165 405.7L263.7 405.7A6 6 0 0 1 269.7 411.7L269.7 421.7A6 6 0 0 1 263.7 427.7L165 427.7L165 405.7" fill="#2F7D7B" ecmeta_series_index="0" ecmeta_data_index="0" ecmeta_ssr_type="chart" class="zr4-cls-27"></path>
<path d="M165 355.1L263.7 355.1A6 6 0 0 1 269.7 361.1L269.7 371.1A6 6 0 0 1 263.7 377.1L165 377.1L165 355.1" fill="#2F7D7B" ecmeta_series_index="0" ecmeta_data_index="1" ecmeta_ssr_type="chart" class="zr4-cls-27"></path>
<path d="M165 304.6L333.9 304.6A6 6 0 0 1 339.9 310.6L339.9 320.6A6 6 0 0 1 333.9 326.6L165 326.6L165 304.6" fill="#2F7D7B" ecmeta_series_index="0" ecmeta_data_index="2" ecmeta_ssr_type="chart" class="zr4-cls-27"></path>
<path d="M165 254L333.9 254A6 6 0 0 1 339.9 260L339.9 270A6 6 0 0 1 333.9 276L165 276L165 254" fill="#2F7D7B" ecmeta_series_index="0" ecmeta_data_index="3" ecmeta_ssr_type="chart" class="zr4-cls-27"></path>
<path d="M165 203.4L439.2 203.4A6 6 0 0 1 445.2 209.4L445.2 219.4A6 6 0 0 1 439.2 225.4L165 225.4L165 203.4" fill="#2F7D7B" ecmeta_series_index="0" ecmeta_data_index="4" ecmeta_ssr_type="chart" class="zr4-cls-27"></path>
<path d="M165 152.9L473.8 152.9A6 6 0 0 1 479.8 158.9L479.8 168.9A6 6 0 0 1 473.8 174.9L165 174.9L165 152.9" fill="#2F7D7B" ecmeta_series_index="0" ecmeta_data_index="5" ecmeta_ssr_type="chart" class="zr4-cls-27"></path>
<path d="M165 102.3L614.2 102.3A6 6 0 0 1 620.2 108.3L620.2 118.3A6 6 0 0 1 614.2 124.3L165 124.3L165 102.3" fill="#2F7D7B" ecmeta_series_index="0" ecmeta_data_index="6" ecmeta_ssr_type="chart" class="zr4-cls-27"></path>
<text dominant-baseline="central" text-anchor="start" style="font-size:12px;font-family:Microsoft YaHei;" transform="translate(274.72 416.7143)" fill="#222222">17.6%</text>
<text dominant-baseline="central" text-anchor="start" style="font-size:12px;font-family:Microsoft YaHei;" transform="translate(274.72 366.1429)" fill="#222222">17.6%</text>
<text dominant-baseline="central" text-anchor="start" style="font-size:12px;font-family:Microsoft YaHei;" transform="translate(344.93 315.5714)" fill="#222222">29.4%</text>
<text dominant-baseline="central" text-anchor="start" style="font-size:12px;font-family:Microsoft YaHei;" transform="translate(344.93 265)" fill="#222222">29.4%</text>
<text dominant-baseline="central" text-anchor="start" style="font-size:12px;font-family:Microsoft YaHei;" transform="translate(450.245 214.4286)" fill="#222222">47.1%</text>
<text dominant-baseline="central" text-anchor="start" style="font-size:12px;font-family:Microsoft YaHei;" transform="translate(484.755 163.8571)" fill="#222222">52.9%</text>
<text dominant-baseline="central" text-anchor="start" style="font-size:12px;font-family:Microsoft YaHei;" transform="translate(625.175 113.2857)" fill="#222222">76.5%</text>
<path d="M-5 -5l489 0l0 52l-489 0Z" transform="translate(21 17)" fill="rgb(0,0,0)" fill-opacity="0" stroke="#ccc" stroke-width="0" class="zr4-cls-26"></path>
<text dominant-baseline="central" text-anchor="start" style="font-size:20px;font-family:Microsoft YaHei;font-weight:700;" xml:space="preserve" y="10" transform="translate(21 17)" fill="#15212B">Buyer Trust Priorities</text>
<text dominant-baseline="central" text-anchor="start" style="font-size:12px;font-family:Microsoft YaHei;" xml:space="preserve" y="36" transform="translate(21 17)" fill="#667085">Buyer-side validation: trust is practical: condition, seller/platform trust, sizing, price, photos</text>
<style ><![CDATA[
.zr4-cls-26:hover {
pointer-events:none;
}
.zr4-cls-27:hover {
cursor:pointer;
fill:rgba(51,137,135,1);
}

]]>

</style>
</svg>